<svg width="512" height="512" viewBox="0 0 512 512" fill="none" xmlns="http://www.w3.org/2000/svg">
<rect width="512" height="512" rx="64" fill="white"/>
<path d="M125.059 37.416C93.0664 48.666 67.7539 74.0664 56.416 105.971H125.059V37.416Z" fill="#6659B2"/>
<path d="M331.25 349.779V68.5293C331.25 47.7871 314.463 31 293.721 31H162.5V124.779C162.5 135.15 154.062 143.5 143.779 143.5H50V349.779C50 370.521 66.7871 387.309 87.5293 387.309H293.809C314.463 387.221 331.25 370.434 331.25 349.779Z" fill="#725FDF"/>
<path d="M425.029 124.779H368.779V349.779C368.779 391.176 335.205 424.75 293.809 424.75H181.309V443.471C181.309 464.213 198.096 481 218.838 481H425.029C445.771 481 462.559 464.213 462.559 443.471V162.221C462.559 141.566 445.771 124.779 425.029 124.779Z" fill="#49407F"/>
</svg>
